<svg width="22" height="22" viewBox="0 0 22 22" fill="none" xmlns="http://www.w3.org/2000/svg">
<path fill-rule="evenodd" clip-rule="evenodd" d="M11 22C17.0751 22 22 17.0751 22 11C22 4.92487 17.0751 0 11 0C4.92487 0 0 4.92487 0 11C0 17.0751 4.92487 22 11 22ZM11 5C9.37018 5 9.16618 5.00655 8.52636 5.036H8.52582C7.88764 5.06545 7.45127 5.16691 7.06945 5.31473C6.66935 5.46551 6.30693 5.70173 6.00745 6.00691C5.70206 6.30653 5.46567 6.66914 5.31473 7.06945C5.16691 7.45127 5.06491 7.88764 5.036 8.52691C5.00709 9.16618 5 9.37018 5 11C5 12.6293 5.00655 12.8333 5.036 13.4742C5.06545 14.1124 5.16691 14.5487 5.31473 14.9305C5.46544 15.3308 5.70166 15.6935 6.00691 15.9931C6.30681 16.2981 6.66959 16.5342 7.07 16.6847C7.45182 16.8331 7.88818 16.9351 8.52636 16.964C9.16618 16.9929 9.37018 17 11 17C12.6298 17 12.8338 16.9935 13.4742 16.964C14.1124 16.9345 14.5487 16.8331 14.9305 16.6847C15.3304 16.5342 15.6931 16.2985 15.9931 15.9931C16.2982 15.6932 16.5342 15.3304 16.6847 14.93C16.8331 14.5482 16.9351 14.1118 16.964 13.4736C16.9929 12.8338 17 12.6298 17 11C17 9.37073 16.9935 9.16673 16.964 8.52582C16.9345 7.88764 16.8331 7.45127 16.6847 7.06945C16.5342 6.66909 16.2985 6.30691 15.9931 6.00745C15.6931 5.702 15.3304 5.46582 14.9305 5.31473C14.5487 5.16691 14.1124 5.06491 13.4731 5.036C12.8338 5.00709 12.6298 5 11 5ZM11 6.08109C12.602 6.08109 12.7918 6.08709 13.4245 6.116C14.0098 6.14273 14.3273 6.24036 14.5389 6.32273C14.7995 6.41884 15.0352 6.57204 15.2289 6.77109C15.4389 6.98109 15.5682 7.18127 15.6773 7.46109C15.7596 7.67273 15.8573 7.99018 15.884 8.57545C15.9129 9.20818 15.9189 9.398 15.9189 11C15.9189 12.602 15.9129 12.7918 15.884 13.4245C15.8573 14.0098 15.7596 14.3273 15.6773 14.5389C15.5813 14.7991 15.428 15.0353 15.2289 15.2289C15.0189 15.4389 14.8187 15.5682 14.5389 15.6773C14.3273 15.7596 14.0098 15.8573 13.4245 15.884C12.7918 15.9129 12.6025 15.9189 11 15.9189C9.39745 15.9189 9.20818 15.9129 8.57545 15.884C7.99018 15.8573 7.67273 15.7596 7.46109 15.6773C7.20091 15.5813 6.96473 15.428 6.77109 15.2289C6.572 15.0353 6.41873 14.7991 6.32273 14.5389C6.24036 14.3273 6.14273 14.0098 6.116 13.4245C6.08709 12.7918 6.08109 12.602 6.08109 11C6.08109 9.398 6.08709 9.20818 6.116 8.57545C6.14273 7.99018 6.24036 7.67273 6.32273 7.46109C6.41883 7.20052 6.57202 6.96476 6.77109 6.77109C6.98109 6.56109 7.18127 6.43182 7.46109 6.32273C7.67273 6.24036 7.99018 6.14273 8.57545 6.116C9.20818 6.08709 9.398 6.08109 11 6.08109ZM11.582 12.9177C11.1382 13.0518 10.6616 13.0278 10.2336 12.8496C9.96027 12.7363 9.71543 12.5637 9.51676 12.3444C9.31808 12.1251 9.17051 11.8644 9.08466 11.5812C8.99881 11.298 8.97682 10.9993 9.02028 10.7065C9.06374 10.4138 9.17156 10.1343 9.33598 9.88828C9.50041 9.64222 9.71734 9.43568 9.97117 9.28353C10.225 9.13137 10.5094 9.03738 10.8039 9.00834C11.0984 8.97929 11.3957 9.0159 11.6744 9.11553C11.953 9.21517 12.2061 9.37535 12.4155 9.58455C12.7438 9.9118 12.9484 10.3429 12.9942 10.8042C13.04 11.2656 12.9243 11.7285 12.6667 12.114C12.4091 12.4994 12.0257 12.7835 11.582 12.9177ZM9.8198 8.15074C9.44563 8.30573 9.10565 8.5329 8.81927 8.81927C8.24091 9.39764 7.91599 10.1821 7.91599 11C7.91599 11.8179 8.24091 12.6024 8.81927 13.1807C9.39764 13.7591 10.1821 14.084 11 14.084C11.8179 14.084 12.6024 13.7591 13.1807 13.1807C13.4671 12.8944 13.6943 12.5544 13.8493 12.1802C14.0042 11.806 14.084 11.405 14.084 11C14.084 10.595 14.0042 10.194 13.8493 9.8198C13.6943 9.44563 13.4671 9.10565 13.1807 8.81927C12.8944 8.5329 12.5544 8.30573 12.1802 8.15074C11.806 7.99576 11.405 7.91599 11 7.91599C10.595 7.91599 10.194 7.99576 9.8198 8.15074ZM14.9351 8.13853C14.8958 8.22783 14.839 8.30833 14.768 8.37527C14.63 8.50547 14.4467 8.57675 14.2569 8.57398C14.0672 8.57122 13.8861 8.49462 13.7519 8.36046C13.6177 8.2263 13.5411 8.04513 13.5384 7.85542C13.5356 7.6657 13.6069 7.48238 13.7371 7.34436C13.804 7.2734 13.8845 7.21658 13.9738 7.17729C14.0631 7.13799 14.1594 7.11701 14.2569 7.11559C14.3545 7.11417 14.4513 7.13233 14.5417 7.16901C14.6321 7.20569 14.7143 7.26013 14.7833 7.32911C14.8522 7.3981 14.9067 7.48022 14.9434 7.57062C14.98 7.66103 14.9982 7.75787 14.9968 7.85542C14.9954 7.95296 14.9744 8.04924 14.9351 8.13853Z" fill="white"/>
</svg>
