<svg width="60" height="60" viewBox="0 0 60 60" fill="none" xmlns="http://www.w3.org/2000/svg">
<path fill-rule="evenodd" clip-rule="evenodd" d="M30 12.5C30.3315 12.5 30.6495 12.6317 30.8839 12.8661C31.1183 13.1005 31.25 13.4185 31.25 13.75V43.2325L39.115 35.365C39.3497 35.1303 39.6681 34.9984 40 34.9984C40.3319 34.9984 40.6503 35.1303 40.885 35.365C41.1197 35.5997 41.2516 35.9181 41.2516 36.25C41.2516 36.5819 41.1197 36.9003 40.885 37.135L30.885 47.135C30.7689 47.2514 30.6309 47.3438 30.4791 47.4068C30.3272 47.4698 30.1644 47.5022 30 47.5022C29.8356 47.5022 29.6728 47.4698 29.5209 47.4068C29.369 47.3438 29.2311 47.2514 29.115 47.135L19.115 37.135C18.8803 36.9003 18.7484 36.5819 18.7484 36.25C18.7484 35.9181 18.8803 35.5997 19.115 35.365C19.3497 35.1303 19.6681 34.9984 20 34.9984C20.3319 34.9984 20.6503 35.1303 20.885 35.365L28.75 43.2325V13.75C28.75 13.4185 28.8817 13.1005 29.1161 12.8661C29.3505 12.6317 29.6685 12.5 30 12.5V12.5Z" fill="#00497A"/>
<rect x="1" y="1" width="58" height="58" rx="29" stroke="#00497A" stroke-width="2"/>
</svg>
