<svg width="20" height="20" viewBox="0 0 20 20" fill="none" xmlns="http://www.w3.org/2000/svg">
<path d="M10 12.9167C9.89036 12.9173 9.78164 12.8963 9.68011 12.8548C9.57858 12.8134 9.48623 12.7522 9.40837 12.675L6.07503 9.34168C5.99733 9.26398 5.9357 9.17174 5.89365 9.07022C5.8516 8.9687 5.82996 8.85989 5.82996 8.75001C5.82996 8.64013 5.8516 8.53132 5.89365 8.4298C5.9357 8.32829 5.99733 8.23604 6.07503 8.15835C6.15273 8.08065 6.24497 8.01901 6.34649 7.97696C6.44801 7.93491 6.55682 7.91327 6.6667 7.91327C6.77658 7.91327 6.88539 7.93491 6.98691 7.97696C7.08843 8.01901 7.18067 8.08065 7.25837 8.15835L10 10.9167L12.75 8.26668C12.8267 8.18144 12.9201 8.11293 13.0245 8.06544C13.1288 8.01795 13.2418 7.99251 13.3565 7.99069C13.4711 7.98887 13.5848 8.01073 13.6906 8.05489C13.7964 8.09905 13.892 8.16456 13.9713 8.24733C14.0506 8.3301 14.112 8.42835 14.1516 8.53593C14.1913 8.6435 14.2083 8.7581 14.2016 8.87255C14.1949 8.98699 14.1646 9.09883 14.1128 9.20106C14.0609 9.30329 13.9885 9.39371 13.9 9.46668L10.5667 12.6833C10.4143 12.8303 10.2117 12.9137 10 12.9167Z" fill="#231F20"/>
</svg>
