<svg width="40" height="40" viewBox="0 0 40 40" fill="none" xmlns="http://www.w3.org/2000/svg">
<path fill-rule="evenodd" clip-rule="evenodd" d="M9.5 20C9.5 19.8011 9.57902 19.6104 9.71967 19.4697C9.86032 19.329 10.0511 19.25 10.25 19.25H27.9395L23.219 14.531C23.0782 14.3902 22.9991 14.1992 22.9991 14C22.9991 13.8009 23.0782 13.6099 23.219 13.469C23.3598 13.3282 23.5508 13.2491 23.75 13.2491C23.9492 13.2491 24.1402 13.3282 24.281 13.469L30.281 19.469C30.3508 19.5387 30.4063 19.6215 30.4441 19.7126C30.4819 19.8037 30.5013 19.9014 30.5013 20C30.5013 20.0987 30.4819 20.1964 30.4441 20.2875C30.4063 20.3786 30.3508 20.4614 30.281 20.531L24.281 26.531C24.1402 26.6719 23.9492 26.751 23.75 26.751C23.5508 26.751 23.3598 26.6719 23.219 26.531C23.0782 26.3902 22.9991 26.1992 22.9991 26C22.9991 25.8009 23.0782 25.6099 23.219 25.469L27.9395 20.75H10.25C10.0511 20.75 9.86032 20.671 9.71967 20.5304C9.57902 20.3897 9.5 20.1989 9.5 20V20Z" fill="#00497A"/>
<rect x="0.5" y="0.5" width="39" height="39" rx="19.5" stroke="#00497A"/>
</svg>
