<svg width="44" height="44" viewBox="0 0 44 44" fill="none" xmlns="http://www.w3.org/2000/svg">
<rect width="44" height="44" rx="22" fill="#00497A"/>
<path fill-rule="evenodd" clip-rule="evenodd" d="M13.75 28C13.75 27.8011 13.829 27.6103 13.9697 27.4697C14.1103 27.329 14.3011 27.25 14.5 27.25H29.5C29.6989 27.25 29.8897 27.329 30.0303 27.4697C30.171 27.6103 30.25 27.8011 30.25 28C30.25 28.1989 30.171 28.3897 30.0303 28.5303C29.8897 28.671 29.6989 28.75 29.5 28.75H14.5C14.3011 28.75 14.1103 28.671 13.9697 28.5303C13.829 28.3897 13.75 28.1989 13.75 28ZM13.75 22C13.75 21.8011 13.829 21.6103 13.9697 21.4697C14.1103 21.329 14.3011 21.25 14.5 21.25H29.5C29.6989 21.25 29.8897 21.329 30.0303 21.4697C30.171 21.6103 30.25 21.8011 30.25 22C30.25 22.1989 30.171 22.3897 30.0303 22.5303C29.8897 22.671 29.6989 22.75 29.5 22.75H14.5C14.3011 22.75 14.1103 22.671 13.9697 22.5303C13.829 22.3897 13.75 22.1989 13.75 22ZM13.75 16C13.75 15.8011 13.829 15.6103 13.9697 15.4697C14.1103 15.329 14.3011 15.25 14.5 15.25H29.5C29.6989 15.25 29.8897 15.329 30.0303 15.4697C30.171 15.6103 30.25 15.8011 30.25 16C30.25 16.1989 30.171 16.3897 30.0303 16.5303C29.8897 16.671 29.6989 16.75 29.5 16.75H14.5C14.3011 16.75 14.1103 16.671 13.9697 16.5303C13.829 16.3897 13.75 16.1989 13.75 16Z" fill="white"/>
</svg>
