<svg width="24" height="24" viewBox="0 0 24 24" fill="none" xmlns="http://www.w3.org/2000/svg">
<path d="M3.21897 4.281C3.14924 4.21127 3.09392 4.12849 3.05619 4.03738C3.01845 3.94627 2.99902 3.84862 2.99902 3.75C2.99902 3.65139 3.01845 3.55374 3.05619 3.46263C3.09392 3.37152 3.14924 3.28873 3.21897 3.219C3.2887 3.14927 3.37149 3.09396 3.4626 3.05622C3.5537 3.01848 3.65135 2.99905 3.74997 2.99905C3.84859 2.99905 3.94624 3.01848 4.03735 3.05622C4.12846 3.09396 4.21124 3.14927 4.28097 3.219L12 10.9395L19.719 3.219C19.7887 3.14927 19.8715 3.09396 19.9626 3.05622C20.0537 3.01848 20.1514 2.99905 20.25 2.99905C20.3486 2.99905 20.4462 3.01848 20.5373 3.05622C20.6285 3.09396 20.7112 3.14927 20.781 3.219C20.8507 3.28873 20.906 3.37152 20.9438 3.46263C20.9815 3.55374 21.0009 3.65139 21.0009 3.75C21.0009 3.84862 20.9815 3.94627 20.9438 4.03738C20.906 4.12849 20.8507 4.21127 20.781 4.281L13.0605 12L20.781 19.719C20.8507 19.7887 20.906 19.8715 20.9438 19.9626C20.9815 20.0537 21.0009 20.1514 21.0009 20.25C21.0009 20.3486 20.9815 20.4463 20.9438 20.5374C20.906 20.6285 20.8507 20.7113 20.781 20.781C20.7112 20.8507 20.6285 20.906 20.5373 20.9438C20.4462 20.9815 20.3486 21.0009 20.25 21.0009C20.1514 21.0009 20.0537 20.9815 19.9626 20.9438C19.8715 20.906 19.7887 20.8507 19.719 20.781L12 13.0605L4.28097 20.781C4.21124 20.8507 4.12846 20.906 4.03735 20.9438C3.94624 20.9815 3.84859 21.0009 3.74997 21.0009C3.65135 21.0009 3.5537 20.9815 3.4626 20.9438C3.37149 20.906 3.2887 20.8507 3.21897 20.781C3.14924 20.7113 3.09392 20.6285 3.05619 20.5374C3.01845 20.4463 2.99902 20.3486 2.99902 20.25C2.99902 20.1514 3.01845 20.0537 3.05619 19.9626C3.09392 19.8715 3.14924 19.7887 3.21897 19.719L10.9395 12L3.21897 4.281Z" fill="#4D4D4D"/>
</svg>
