<svg width="120" height="58" viewBox="0 0 120 58" fill="none" xmlns="http://www.w3.org/2000/svg">
<path d="M40.8626 45.4755C41.0862 45.702 41.1085 45.9511 40.9297 46.2229C40.8403 46.3588 40.7284 46.4494 40.5944 46.4948C39.6555 46.9479 38.8062 47.163 38.0461 47.1403C37.286 47.1177 36.6379 46.9931 36.1014 46.7666C35.4754 46.5401 34.8943 46.2003 34.3579 45.7472C34.045 45.4755 33.8103 45.2603 33.6538 45.1018C33.4973 44.9433 33.3742 44.7846 33.2849 44.6263C33.1954 44.4675 33.1061 44.2752 33.0167 44.0487C32.9273 43.822 32.7708 43.5276 32.5472 43.1652C32.1003 42.078 31.4854 40.8776 30.7031 39.564C29.9207 38.2501 28.926 37.0043 27.7189 35.8264C26.7354 37.0949 25.4835 38.5899 23.9636 40.3114C22.4434 42.0328 20.8117 43.6748 19.0682 45.2377C17.3248 46.8005 15.5812 48.1142 13.8375 49.179C12.0941 50.2434 10.5293 50.7756 9.14339 50.7756C7.89153 50.7756 6.8634 50.5152 6.05866 49.9943C5.25397 49.4732 4.60572 48.9069 4.11395 48.2955C3.62224 47.684 3.27564 47.1064 3.0745 46.5627C2.87342 46.0192 2.75043 45.7246 2.70578 45.6794C2.70578 45.5888 2.71693 45.5094 2.73922 45.4414C2.76158 45.3735 2.77273 45.2942 2.77273 45.2037C2.77273 45.1585 2.80635 45.0792 2.87342 44.9659C2.94036 44.8526 3.06335 44.7734 3.24214 44.7281C3.64454 44.5922 3.95746 44.7281 4.18108 45.1357C4.27044 45.2264 4.43808 45.3735 4.68399 45.5774C4.92984 45.7812 5.23167 45.9059 5.58925 45.9511H5.72326C6.97512 45.9964 8.38347 45.6454 9.94813 44.8979C11.5128 44.1505 13.1222 43.1652 14.7764 41.9421C16.4305 40.7189 18.0959 39.3373 19.7724 37.7971C21.4489 36.2568 23.0247 34.7394 24.5001 33.2444C23.3377 32.5196 22.0636 31.908 20.6777 31.4098C19.2918 30.9114 17.7493 30.5943 16.0506 30.4584C14.1282 30.3225 12.4405 30.4019 10.9876 30.6962C9.53458 30.9908 8.27157 31.3984 7.19868 31.9194C6.12578 32.4404 5.25397 32.9839 4.58342 33.5502C3.91269 34.1165 3.39863 34.6035 3.04088 35.0111C2.77273 35.3283 2.59394 35.5999 2.50452 35.8264C2.41516 36.0531 2.37032 36.2116 2.37032 36.3022V36.4381C2.32573 36.8005 2.21389 37.0723 2.03511 37.2534C1.94568 37.3442 1.85626 37.3894 1.7669 37.3894C1.45392 37.4801 1.20807 37.4347 1.02928 37.2534C0.850315 37.0723 0.7163 36.8685 0.626758 36.642C0.492743 36.3701 0.381024 36.0531 0.291601 35.6907C-0.155513 33.6069 -0.0884458 31.9194 0.492743 30.6282C1.07387 29.3373 1.92339 28.3293 3.04088 27.6045C4.1586 26.8797 5.43276 26.3814 6.8634 26.1096C8.29387 25.8377 9.64648 25.6907 10.9205 25.6679C12.1946 25.6453 13.2787 25.6792 14.173 25.7699C15.0671 25.8605 15.5364 25.9057 15.5812 25.9057C18.1293 26.3587 20.3311 26.9929 22.1865 27.8084C24.0419 28.6238 25.6625 29.5525 27.0483 30.5943C28.2554 29.2806 29.306 28.1141 30.2001 27.0949C31.0942 26.0757 31.7202 25.3622 32.0778 24.9544C32.6589 24.3202 33.3072 23.6068 34.0225 22.814C34.7378 22.0213 35.4754 21.2624 36.2355 20.5376C36.9955 19.8128 37.7443 19.1673 38.4821 18.601C39.2197 18.0349 39.9237 17.661 40.5944 17.4799C40.952 17.344 41.265 17.2988 41.5332 17.344C42.0249 17.3893 42.472 17.5025 42.8744 17.6838C43.2768 17.8649 43.6568 18.0688 44.0144 18.2953C44.5955 18.703 45.0873 19.156 45.4896 19.6543C45.5344 19.7449 45.5679 19.8467 45.5902 19.9601C45.6127 20.0734 45.5568 20.2432 45.4226 20.4697C45.065 20.8774 44.5621 21.5456 43.9138 22.4743C43.2656 23.4029 42.5949 24.5354 41.9021 25.8718C41.209 27.2081 40.5273 28.6804 39.8566 30.2885C39.1861 31.8967 38.6943 33.5841 38.3814 35.3509C37.979 37.3894 37.8562 39.0316 38.0127 40.2773C38.1691 41.523 38.4261 42.5083 38.7837 43.2332C39.1415 43.9579 39.5438 44.4788 39.9908 44.7961C40.4379 45.1131 40.7284 45.3396 40.8626 45.4755ZM32.4801 36.9817C32.8377 35.2603 33.3965 33.5502 34.1567 31.8515C34.9166 30.1527 35.6767 28.6465 36.4367 27.3327C37.3308 25.7925 38.3142 24.3202 39.3873 22.9159C38.985 22.9159 38.4261 23.233 37.7108 23.8672C36.9955 24.5015 36.2019 25.3055 35.3301 26.2795C34.4585 27.2534 33.5419 28.3406 32.5809 29.5412C31.6196 30.7415 30.6696 31.9307 29.7307 33.1085C30.3566 33.7427 30.8818 34.3883 31.3067 35.0451C31.7314 35.702 32.1224 36.3475 32.4801 36.9817ZM42.7537 44.6602C41.6361 44.4788 40.8648 44.1052 40.4401 43.5389C40.0155 42.9728 39.9259 42.4176 40.172 41.8741C40.4178 41.3306 40.9878 40.198 41.8819 38.4766C43.0442 36.5287 43.8378 35.2942 44.2626 34.7733C44.6872 34.2524 45.2349 33.6635 45.9055 33.0066C46.5761 32.3498 47.3361 31.6815 48.1855 31.0021C49.035 30.3225 49.9514 29.7336 50.935 29.2353C51.0244 29.1447 51.1362 29.0882 51.2702 29.0655C51.4044 29.0429 51.5161 28.9862 51.6057 28.8956C51.9631 28.7597 52.3543 28.6691 52.7792 28.6238C53.2038 28.5784 53.5727 28.7371 53.8857 29.0995C54.3773 29.643 54.5449 30.2319 54.3884 30.8661C54.2321 31.5004 54.042 32.0213 53.8185 32.4289C53.6844 32.7461 53.5391 33.0859 53.3826 33.4483C53.2261 33.8107 53.0585 34.1731 52.8797 34.5355C52.7455 34.8979 52.6004 35.2829 52.4437 35.6907C52.2874 36.0985 52.142 36.4833 52.008 36.8459C51.6057 38.2501 51.3933 39.6204 51.3709 40.9569C51.3485 42.2931 51.6503 43.3465 52.2761 44.1166C52.3656 44.2524 52.4326 44.4224 52.4773 44.6263C52.5219 44.83 52.4326 44.9772 52.2091 45.0678C51.9408 45.1585 51.6167 45.2603 51.2368 45.3735C50.8567 45.4868 50.432 45.5547 49.9626 45.5774C49.4932 45.6001 48.9903 45.5662 48.4537 45.4755C47.9174 45.385 47.3808 45.1811 46.8445 44.8641C46.6208 44.7281 46.4867 44.5583 46.4421 44.3544C46.3973 44.1505 46.3525 44.0033 46.3079 43.9126C46.2631 43.369 46.2743 42.4971 46.3414 41.2965C46.4084 40.0962 46.7101 38.6351 47.2466 36.9138C47.336 36.5966 47.4479 36.2455 47.5819 35.8605C47.7161 35.4755 47.8949 35.079 48.1184 34.6714V34.5355C48.0291 34.4902 47.9619 34.4902 47.9174 34.5355C47.4254 34.8979 46.9225 35.3283 46.4084 35.8264C45.8944 36.3248 45.4361 36.891 45.0337 37.5253C44.4078 38.4766 43.9608 39.5865 43.6925 40.8549C43.6031 41.3986 43.536 41.9082 43.4914 42.3837C43.4466 42.8594 43.4243 43.2332 43.4243 43.505C43.4243 43.822 43.402 44.0259 43.3572 44.1166C43.223 44.343 43.089 44.5242 42.9549 44.6602C42.8654 44.7055 42.7984 44.7055 42.7537 44.6602ZM68.4509 35.4868C67.9592 36.5287 67.5568 37.6159 67.2438 38.7484C66.8863 39.9262 66.7186 41.0248 66.7409 42.0441C66.7632 43.0633 67.0873 44.0259 67.7133 44.932L67.8474 45.2037C67.9369 45.385 67.9369 45.5434 67.8474 45.6794C67.7581 45.9511 67.4674 46.0418 66.9756 45.9511C66.1263 45.9511 65.3885 45.7925 64.7626 45.4755C64.2262 45.249 63.7343 44.8414 63.2873 44.2524C62.8404 43.6635 62.6167 42.8255 62.6167 41.7382C61.8566 42.7348 60.9627 43.5955 59.9344 44.3204C58.9061 45.0451 57.7439 45.2716 56.4472 44.9999C55.5532 44.8187 54.916 44.445 54.5361 43.8787C54.156 43.3124 53.9436 42.6443 53.899 41.8741C53.8543 41.104 53.9548 40.266 54.2007 39.36C54.4467 38.454 54.7597 37.5706 55.1396 36.7099C55.5196 35.8492 55.9331 35.0451 56.3801 34.2977C56.8273 33.5502 57.2296 32.9498 57.5874 32.4969C58.2133 31.6363 59.0067 30.7982 59.9679 29.9828C60.9291 29.1673 61.9462 28.8277 63.0191 28.9636C63.1979 29.0088 63.4326 29.0655 63.7231 29.1334C64.0138 29.2013 64.2933 29.3486 64.5615 29.5751C65.0532 29.9375 65.3439 30.4019 65.4333 30.968C65.5227 31.5343 65.4781 32.1346 65.2991 32.7689V32.8367H65.3662C65.7685 32.5196 66.2378 32.4743 66.7744 32.7009C66.8191 32.7461 66.8638 32.7689 66.9086 32.7689C67.6685 33.1765 68.1602 33.72 68.3838 34.3996C68.5626 34.7166 68.5849 35.079 68.4509 35.4868ZM63.4213 37.1175C63.5557 36.6194 63.712 36.121 63.8908 35.6225C64.0697 35.1244 64.2708 34.6261 64.4944 34.1278C64.2708 34.3542 64.0361 34.5468 63.7902 34.7054C63.5444 34.8638 63.2425 34.9431 62.8849 34.9431C62.4826 34.9431 62.259 34.8753 62.2144 34.7394C62.125 34.5581 62.125 34.3316 62.2144 34.0598C62.2144 34.0598 62.2815 33.9918 62.4155 33.8559L62.4826 33.7879C62.6616 33.5615 62.8067 33.199 62.9186 32.7009C63.0303 32.2026 62.885 31.8174 62.4826 31.5456C62.125 31.3191 61.7002 31.3644 61.2084 31.6815C60.7167 31.9987 60.2249 32.4743 59.7332 33.1085C59.2414 33.7427 58.7943 34.4676 58.392 35.2829C57.9897 36.0985 57.7214 36.8685 57.5874 37.5932C57.4532 38.318 57.4979 38.9523 57.7214 39.496C57.9449 40.0395 58.4367 40.334 59.1966 40.3791C59.6886 40.4245 60.3031 40.2093 61.0408 39.7338C61.7784 39.258 62.4603 38.7484 63.0862 38.2049C63.1756 38.0236 63.2316 37.8423 63.2539 37.6612C63.2761 37.4801 63.3321 37.2988 63.4213 37.1175ZM86.6376 30.4584C86.8163 30.9114 86.794 31.3419 86.5705 31.7495C86.3469 32.112 86.0899 32.565 85.7993 33.1085C85.5087 33.652 85.2517 34.2411 85.0281 34.8753C84.8493 35.2378 84.6817 35.6114 84.525 35.9964C84.3687 36.3816 84.2457 36.7553 84.1563 37.1175C83.7092 38.4766 83.4856 39.8017 83.4856 41.0928C83.4856 42.3837 83.7763 43.4144 84.3574 44.1844C84.447 44.3204 84.525 44.4788 84.5922 44.6602C84.6592 44.8414 84.581 44.9772 84.3574 45.0678C84.0893 45.1585 83.754 45.2603 83.3516 45.3735C82.9492 45.4868 82.5134 45.5547 82.044 45.5774C81.5745 45.6001 81.0715 45.5662 80.5351 45.4755C79.9987 45.385 79.4622 45.1811 78.9256 44.8641C78.6127 44.5922 78.4562 44.2978 78.4562 43.9805C78.4116 43.6181 78.3891 43.1313 78.3891 42.5198C78.3891 41.9082 78.4562 41.1493 78.5903 40.2434C78.0986 41.0134 77.5957 41.7382 77.0815 42.4176C76.5674 43.0972 76.042 43.6409 75.5057 44.0487C75.1481 44.3657 74.8126 44.5468 74.4997 44.5922C74.2761 44.7281 74.0527 44.7961 73.8291 44.7961C72.1303 44.932 70.9567 44.343 70.3086 43.0293C69.6602 41.7156 69.7161 39.7677 70.4762 37.1855C70.5208 36.9138 70.6102 36.6645 70.7443 36.4381C70.7443 36.3927 70.7556 36.3475 70.7779 36.3022C70.8004 36.2568 70.8115 36.2116 70.8115 36.1662C71.5714 34.0372 72.2979 32.3498 72.9909 31.1039C73.6838 29.8582 74.075 29.19 74.1644 29.0995C74.3879 28.7371 74.7232 28.6012 75.1704 28.6917C75.6173 28.7823 75.9078 28.8728 76.042 28.9636C76.355 29.0542 76.6679 29.2353 76.9809 29.5071C77.1597 29.643 77.3833 29.9149 77.6516 30.3225C77.9198 30.7302 77.9198 31.206 77.6516 31.7495C77.4281 32.112 77.1822 32.565 76.9138 33.1085C76.6456 33.652 76.3773 34.2411 76.1091 34.8753C76.0197 35.1016 75.9303 35.3168 75.8409 35.5207C75.7515 35.7246 75.662 35.9397 75.5727 36.1662C75.5727 36.2116 75.5616 36.2342 75.5391 36.2342C75.5168 36.2342 75.5057 36.2568 75.5057 36.3022C75.461 36.5287 75.3826 36.8572 75.2709 37.2875C75.1592 37.7179 75.0921 38.1483 75.0698 38.5786C75.0473 39.009 75.081 39.3939 75.1704 39.7338C75.2598 40.0734 75.461 40.266 75.7738 40.3114C75.8634 40.3114 75.9303 40.2886 75.975 40.2434C76.2879 40.1075 76.6791 39.7677 77.1485 39.2242C77.618 38.6805 78.0986 38.0349 78.5903 37.2875C79.0821 36.5401 79.5627 35.77 80.0322 34.9772C80.5014 34.1844 80.9152 33.4709 81.2727 32.8367C81.5409 32.3383 81.8986 31.761 82.3458 31.1039C82.7927 30.4471 83.2845 29.8695 83.821 29.3714H83.888C83.9328 29.2806 84.134 29.1447 84.4916 28.9636C84.581 28.9182 84.7151 28.9182 84.8939 28.9636C85.0281 29.0088 85.1846 29.0655 85.3634 29.1334C85.5422 29.2013 85.7433 29.3486 85.9668 29.5751C85.9668 29.6204 85.9892 29.643 86.034 29.643C86.034 29.643 86.0787 29.6656 86.1682 29.711L86.5705 30.3225V30.3904C86.6151 30.3904 86.6376 30.4132 86.6376 30.4584ZM85.8998 26.5853C86.3917 26.9024 86.3246 27.1403 85.6987 27.2986C85.0729 27.4573 84.2457 27.5027 83.2174 27.4346C82.1893 27.3666 81.1385 27.1403 80.0656 26.7551C78.9927 26.3701 78.2551 25.7925 77.8527 25.0224C77.5397 24.3881 77.4056 23.8785 77.4504 23.4935C77.4952 23.1085 77.6069 22.78 77.7857 22.5081C77.9646 22.2363 78.2551 21.9874 78.6575 21.7607C78.9704 21.5795 79.2497 21.4776 79.4957 21.455C79.7415 21.4322 79.9093 21.4437 79.9987 21.4889C80.1327 21.353 80.2446 21.3983 80.334 21.6248C80.7364 22.848 81.2281 23.7767 81.8093 24.4109C82.3904 25.045 82.9604 25.5094 83.5192 25.8038C84.0781 26.0983 84.581 26.2795 85.0281 26.3475C85.4753 26.4155 85.7658 26.4947 85.8998 26.5853ZM87.5227 34.8753C87.8803 33.6069 88.3498 32.3837 88.9309 31.206C89.5122 29.9375 89.8473 29.258 89.9369 29.1673C90.1157 28.8049 90.3838 28.6691 90.7416 28.7597C91.144 28.8503 91.4121 28.9408 91.5463 29.0314L91.8146 29.2353C91.9487 29.2806 92.1052 29.394 92.284 29.5751C92.4627 29.711 92.6638 29.9828 92.8874 30.3904C93.1556 30.7982 93.1556 31.2739 92.8874 31.8174C92.6638 32.1798 92.4404 32.633 92.2169 33.1765C91.9933 33.72 91.8146 34.1957 91.6804 34.6035C91.4121 35.147 91.1215 35.8038 90.8085 36.574C91.0321 36.3022 91.4456 35.7813 92.0493 35.0111C92.6529 34.2411 93.3569 33.4483 94.1616 32.633C94.9663 31.8174 95.8381 31.07 96.777 30.3904C97.7157 29.711 98.6547 29.326 99.5936 29.2353C99.9065 29.19 100.219 29.19 100.532 29.2353C100.8 29.2806 101.091 29.3373 101.404 29.4052C101.717 29.4732 102.008 29.6204 102.276 29.8469C102.633 30.1188 102.846 30.4924 102.913 30.968C102.98 31.4437 102.958 31.9194 102.846 32.3952C102.734 32.8707 102.566 33.3237 102.343 33.754C102.119 34.1844 101.918 34.5127 101.739 34.7394C101.426 35.1016 101.046 35.3734 100.599 35.5548C100.152 35.7359 99.6941 35.8492 99.2247 35.8945C98.7552 35.9397 98.3417 35.9397 97.9839 35.8945C97.6264 35.8492 97.3805 35.8264 97.2464 35.8264C97.0229 35.8264 96.8887 35.7585 96.8439 35.6225C96.7993 35.4868 96.7993 35.3734 96.8439 35.2829C97.1569 34.5581 97.5592 33.72 98.051 32.7689C98.0958 32.633 98.1181 32.4969 98.1181 32.3609C98.1181 32.1346 97.8945 32.0893 97.4474 32.2252L97.0452 32.4969C97.0004 32.4969 96.9781 32.5083 96.9781 32.531C96.9781 32.5535 96.9558 32.565 96.9111 32.565C96.777 32.6555 96.6428 32.7574 96.5086 32.8707C96.3745 32.9839 96.2182 33.1311 96.0392 33.3124C95.8605 33.4483 95.7151 33.5841 95.6034 33.72C95.4916 33.8559 95.3687 33.9918 95.2345 34.1278C94.8769 34.5355 94.6422 34.9205 94.5305 35.2829C94.4186 35.6453 94.3404 35.8718 94.2958 35.9625V36.0985C94.1616 36.7779 94.1839 37.3668 94.3629 37.8651C94.5416 38.3633 94.8212 38.7823 95.201 39.1221C95.5809 39.4619 95.9946 39.7451 96.4416 39.9715C96.8887 40.198 97.2909 40.334 97.6487 40.3791C98.364 40.5151 99.1016 40.5151 99.8616 40.3791C100.175 40.3791 100.476 40.4698 100.767 40.651C101.057 40.8323 101.046 41.2398 100.733 41.8741C100.331 42.6443 99.7499 43.3576 98.9899 44.0146C98.2298 44.6714 97.3359 45.0451 96.3076 45.1357H96.1063C95.7933 45.1811 95.514 45.1811 95.2679 45.1357C95.0221 45.0904 94.7875 45.0225 94.5639 44.932L93.9605 44.7281C92.8874 44.2298 92.2617 43.3576 92.0829 42.1119C91.9039 40.8662 91.9933 39.5186 92.3511 38.0689C91.9039 38.8843 91.5127 39.7903 91.1774 40.787C90.8422 41.7835 90.5627 42.8707 90.3391 44.0487C90.2497 44.5468 90.1491 44.9205 90.0374 45.1698C89.9256 45.4189 89.7356 45.4983 89.4674 45.4076C89.3332 45.4076 89.1322 45.3735 88.8638 45.3057C88.5956 45.2377 88.305 45.1131 87.992 44.932C87.679 44.7507 87.3662 44.4903 87.0533 44.1505C86.7403 43.8107 86.4721 43.369 86.2486 42.8255C86.1144 42.3724 86.0473 41.8515 86.0473 41.2626C86.0473 40.6737 86.0921 40.0734 86.1814 39.4619C86.2709 38.8503 86.4051 38.2614 86.5838 37.6953C86.7626 37.129 86.9193 36.642 87.0533 36.2342C87.0981 36.0531 87.2545 35.5999 87.5227 34.8753ZM118.652 29.3714C118.831 29.4165 119.11 29.5638 119.49 29.813C119.87 30.0621 120.038 30.3678 119.993 30.7302C119.993 31.6815 119.781 32.8595 119.356 34.2637C118.931 35.6679 118.383 37.0837 117.713 38.5106C117.042 39.9376 116.282 41.2739 115.433 42.5198C114.583 43.7655 113.712 44.7281 112.818 45.4076H112.75C114.585 45.4076 115.692 45.244 117.378 46.1551C118.048 46.5173 118.473 47.1742 118.652 48.1256C118.875 49.5752 118.719 50.8323 118.182 51.8969C117.646 52.9613 117.132 53.7428 116.64 54.2413C115.835 55.0566 114.863 55.7813 113.723 56.4155C112.583 57.0497 111.253 57.4122 109.733 57.5029C108.034 57.6388 106.76 57.3329 105.911 56.5855C105.061 55.8381 104.502 54.9207 104.234 53.8333C103.966 52.7463 103.91 51.6591 104.066 50.5717C104.223 49.4847 104.458 48.6919 104.77 48.1936C104.145 48.1031 103.139 48.1369 101.753 48.2955C95.9006 48.9648 92.8278 52.8827 88.906 53.8556C87.8109 54.1273 86.7489 54.2632 85.7206 54.2632C83.5301 54.3085 81.9877 53.7762 81.0936 52.6664C80.1995 51.5565 79.8865 50.1862 80.1547 48.5553C80.1995 48.4648 80.2888 48.3175 80.423 48.1137C80.5571 47.9098 80.7806 47.8985 81.0936 48.0796C81.3618 48.2157 81.742 48.3742 82.2335 48.5553C82.7253 48.7365 83.3513 48.8612 84.1112 48.929C84.8712 48.997 85.8102 48.997 86.9277 48.929C89.1224 48.7958 92.4066 47.5666 94.7115 47.0044C95.9184 46.71 97.1703 46.4494 98.4669 46.2229C99.7632 45.9964 101.306 45.8153 103.094 45.6794C103.809 45.634 104.458 45.6566 105.039 45.7472C105.53 45.8379 105.978 45.9738 106.38 46.1551C106.782 46.3362 106.939 46.6533 106.849 47.1064C106.805 47.5594 106.67 48.1256 106.447 48.8051C106.223 49.4847 106.145 50.1415 106.212 50.7756C106.279 51.4098 106.615 51.9422 107.218 52.3724C107.822 52.8028 108.906 53.0179 110.47 53.0179C111.231 52.9728 111.99 52.7915 112.75 52.4744C116.626 50.7918 116.291 47.4418 112.952 48.1936C112.147 48.3747 111.48 48.703 110.786 49.0428C108.654 50.0876 107.531 47.0953 110.403 44.1844C110.538 44.0487 110.661 43.9013 110.772 43.7428C110.884 43.5842 110.985 43.437 111.074 43.3011C111.387 42.8935 111.689 42.395 111.979 41.8061C112.27 41.2172 112.527 40.651 112.75 40.1075C112.84 39.881 112.941 39.6317 113.052 39.36C113.164 39.0882 113.265 38.8164 113.354 38.5445C112.728 39.6771 112.069 40.7302 111.376 41.7043C110.683 42.6782 109.956 43.4596 109.196 44.0487C108.839 44.3657 108.526 44.5468 108.258 44.5922C107.989 44.7281 107.766 44.7961 107.587 44.7961C105.888 44.932 104.715 44.343 104.066 43.0293C103.418 41.7156 103.474 39.7677 104.234 37.1855C104.279 37.0496 104.312 36.9138 104.335 36.7779C104.357 36.642 104.39 36.5287 104.435 36.4381C104.48 36.3927 104.502 36.3022 104.502 36.1662C105.262 34.0372 106 32.3498 106.715 31.1039C107.431 29.8582 107.81 29.19 107.855 29.0995C108.079 28.7371 108.425 28.6012 108.895 28.6917C109.364 28.7823 109.666 28.8728 109.8 28.9636C109.889 29.0088 110.012 29.0655 110.169 29.1334C110.325 29.2013 110.515 29.326 110.739 29.5071C110.918 29.643 111.141 29.9149 111.409 30.3225C111.678 30.7302 111.655 31.206 111.342 31.7495C111.119 32.112 110.873 32.565 110.605 33.1085C110.336 33.652 110.068 34.2411 109.8 34.8753C109.71 35.1016 109.621 35.3168 109.532 35.5207C109.442 35.7246 109.353 35.9397 109.264 36.1662V36.3022C109.174 36.5287 109.085 36.8572 108.995 37.2875C108.906 37.7179 108.839 38.1483 108.794 38.5786C108.749 39.009 108.772 39.3939 108.861 39.7338C108.951 40.0734 109.152 40.266 109.465 40.3114C109.554 40.3114 109.643 40.2886 109.733 40.2434C110.046 40.1075 110.426 39.779 110.873 39.258C111.32 38.7371 111.8 38.1143 112.315 37.3894C112.829 36.6645 113.332 35.8831 113.824 35.0451C114.315 34.207 114.74 33.403 115.098 32.633C115.142 32.5876 115.165 32.5423 115.165 32.4969C115.165 32.4517 115.187 32.3837 115.232 32.2932C115.41 31.6135 115.545 30.9793 115.634 30.3904C115.813 29.7563 116.137 29.3825 116.606 29.2693C117.076 29.156 117.422 29.0995 117.646 29.0995C117.914 29.1447 118.126 29.19 118.283 29.2353C118.439 29.2806 118.562 29.326 118.652 29.3714Z" fill="#00497A"/>
<path fill-rule="evenodd" clip-rule="evenodd" d="M108.921 15.589C108.726 15.2995 106.507 13.7185 105.968 12.9313C107.609 13.1908 108.675 13.847 108.921 15.589ZM102.528 12.1401C105.592 10.7132 104.181 12.9114 105.203 14.3047C105.389 14.5572 105.764 14.7452 106.092 15.0055L106.866 15.77C106.3 15.6974 105.402 15.4858 104.904 15.4634C103.986 15.4219 104.616 15.3612 103.944 15.6123C103.681 15.7105 103.945 15.7008 103.242 15.9823L101.026 13.7121C100.543 13.2531 100.705 13.4929 100.413 12.9708C101.129 12.5709 101.843 12.4593 102.528 12.1401ZM97.0071 12.1849C95.4786 11.8997 95.2888 11.8648 94.9431 10.5389C95.809 10.8409 96.5446 11.3562 97.0071 12.1849ZM90.5912 9.54323C90.9913 10.3915 91.3104 10.1957 92.0105 10.9151C92.2621 11.1736 92.4691 11.4127 92.5433 11.7057C92.7604 12.5632 92.49 12.4227 92.4525 12.5077C91.8989 11.8225 91.3783 11.2598 90.7701 10.5476C90.1217 9.78828 89.7553 9.54371 89.004 8.93731C89.6627 7.78014 90.244 7.40523 91.1025 6.76225C91.5532 7.41725 91.3881 7.75063 91.7659 8.38957C92.0678 8.90007 92.3344 8.92957 92.7106 9.54388L90.5912 9.54323ZM84.8763 6.3875C84.0015 6.00539 83.2072 5.4868 82.902 4.56439C83.5138 4.89998 82.9305 4.31816 83.549 4.99291C84.0226 5.50924 84.6814 5.94179 84.8763 6.3875ZM60.555 21.0665C61.4769 19.8367 64.2596 17.5415 65.5963 16.3101C69.0882 13.0934 72.7371 8.66513 75.3374 6.41886C77.1123 4.88582 78.8831 3.5121 80.5902 2.06385C81.1542 2.82069 81.761 4.60539 82.2925 5.57855C82.949 6.78093 84.0934 7.25364 84.5405 8.669L82.1117 7.80001L82.8993 10.4434C82.3805 11.0522 83.2138 10.3844 82.4081 10.705C81.3312 11.1333 83.2594 10.4797 82.0741 10.8112C81.7416 10.9043 81.9259 10.7205 81.4609 10.9031C81.7353 11.219 85.1585 14.7293 85.2275 14.7836C85.847 15.2696 87.1809 15.5646 87.9057 15.9867C89.4496 16.8858 88.9164 17.0208 89.7906 17.9742C90.7692 19.0415 94.0344 19.3451 95.5589 19.9464C97.328 20.6443 99.2651 21.6792 101.066 22.1608L99.4441 19.8335C104.916 19.1552 106.076 21.5657 110.339 22.3485L106.395 18.5313L111.881 20.2497L110.143 18.3867C112.954 18.6041 110.463 20.4224 117.916 20.5458C115.668 18.6916 112.892 17.8196 110.708 15.6209C109.344 14.2477 109.75 13.8993 107.972 12.4161C107.229 11.7962 105.486 10.2252 104.736 9.91475L99.2475 12.287L91.2872 4.48515L87.8822 7.52885L80.6724 3.76573e-05C77.5591 2.18105 69.9332 8.99465 68.2802 11.6558C65.2301 11.4271 64.2728 10.2112 61.8676 9.58553C59.896 11.1265 57.5822 13.4202 55.655 14.7283C53.6424 16.0948 50.2621 17.6546 48.8259 19.1569C54.5291 17.8012 58.5857 13.9671 62.2323 11.6581C63.2367 13.8055 62.5952 12.6011 62.2293 13.0716C61.5877 13.8964 62.289 13.4431 61.9029 14.6178C61.5171 15.7913 60.1417 16.1143 59.2848 16.7981C57.5136 18.212 56.0285 20.1521 54.6801 21.6876C55.6422 21.6111 56.6933 21.3244 57.6258 21.0934C59.4642 20.6378 58.9775 21.0803 60.555 21.0665Z" fill="#00497A"/>
<path d="M44.5408 50.5184C44.1148 50.7709 43.7634 51.0073 43.4839 51.2332C43.2069 51.4589 42.8955 51.7246 42.5548 52.0328C42.214 52.3409 41.953 52.5508 41.78 52.6598C41.6042 52.7714 41.4232 52.8271 41.2343 52.8271C41.0878 52.8271 40.9734 52.7925 40.8909 52.7235C40.811 52.6519 40.7711 52.5667 40.7711 52.4632C40.7711 52.3621 40.8056 52.2426 40.8722 52.1097C40.9388 51.977 41.0398 51.8707 41.1732 51.7937C41.5299 51.5837 41.8865 51.3552 42.2486 51.1084C42.6107 50.8611 42.994 50.5903 43.4013 50.2901C43.8085 49.9925 44.168 49.7267 44.4796 49.4984C44.5727 49.4267 44.7804 49.2619 45.1051 48.9989C45.4272 48.7358 45.6936 48.5579 45.9011 48.4622C46.1088 48.3665 46.3591 48.3187 46.6492 48.3187C46.7878 48.3187 46.8569 48.4143 46.8569 48.6056C46.8569 48.9855 46.7797 49.3867 46.6279 49.8117C46.4762 50.2368 46.1407 51.1003 45.6163 52.4019C45.0945 53.7012 44.6712 54.8383 44.3491 55.8104C44.2744 56.055 44.2001 56.2143 44.1229 56.2862C44.0454 56.3605 43.9072 56.4084 43.7101 56.4322C43.4465 56.4616 43.1591 56.5305 42.8529 56.6368C42.5467 56.7457 42.3365 56.7988 42.2246 56.7988C41.961 56.7988 41.828 56.6555 41.828 56.3711C41.828 56.2729 42.0037 55.8983 42.355 55.2473C42.7091 54.5991 43.0631 53.9084 43.4173 53.1831C43.7741 52.4551 44.1494 51.5652 44.5408 50.5184ZM52.7164 53.2895C51.9629 53.6745 51.308 53.8659 50.7516 53.8659C50.1767 53.8659 49.7214 53.672 49.386 53.2868C49.0505 52.9015 48.8827 52.4047 48.8827 51.791C48.8827 51.4085 48.952 51.0684 49.0904 50.7761C49.2315 50.4839 49.4125 50.2262 49.6388 50.0031C49.8652 49.7825 50.1606 49.5275 50.528 49.2432C50.9194 48.9324 51.2016 48.7145 51.3799 48.5897C51.5583 48.4648 51.8059 48.348 52.12 48.2417C52.4342 48.1328 52.8016 48.0796 53.2276 48.0796C54.1833 48.0796 54.8063 48.4462 55.0937 49.1795C55.3626 49.5088 55.4957 49.9233 55.4957 50.4228C55.4957 51.3314 55.2375 52.232 54.7211 53.1274C54.2019 54.0199 53.4698 54.8091 52.5247 55.4917C51.6595 56.1187 50.6052 56.6555 49.362 57.1017C48.6245 57.3673 48.1613 57.5029 47.9697 57.5029C47.6848 57.5029 47.5411 57.2557 47.5411 56.7669C47.5411 56.6792 47.5837 56.5518 47.6662 56.3843C47.7487 56.2197 47.8499 56.0737 47.9643 55.9487C48.0814 55.8239 48.1826 55.7627 48.2732 55.7627C48.401 55.7627 48.5421 55.8213 48.6965 55.9381C48.8481 56.055 48.9866 56.1135 49.1065 56.1135C49.3807 56.1135 49.7613 55.9966 50.2433 55.7654C50.7278 55.5315 51.2016 55.1996 51.6621 54.7664C52.1253 54.3335 52.4767 53.8392 52.7164 53.2895ZM52.0774 52.5746C52.4661 52.5746 52.7802 52.4261 53.0172 52.1311C53.2541 51.8362 53.3714 51.4616 53.3714 51.0098C53.3714 50.5582 53.2568 50.1917 53.0253 49.9154C52.7936 49.6363 52.4874 49.4984 52.1068 49.4984C51.7128 49.4984 51.3773 49.6311 51.1003 49.8994C50.8262 50.1678 50.6877 50.5078 50.6877 50.917C50.6877 51.3686 50.8262 51.7591 51.1003 52.0859C51.3746 52.4126 51.6994 52.5746 52.0774 52.5746ZM60.924 53.2895C60.1704 53.6745 59.5156 53.8659 58.9591 53.8659C58.3841 53.8659 57.929 53.672 57.5936 53.2868C57.2581 52.9015 57.0903 52.4047 57.0903 51.791C57.0903 51.4085 57.1596 51.0684 57.298 50.7761C57.4391 50.4839 57.6201 50.2262 57.8463 50.0031C58.0728 49.7825 58.3682 49.5275 58.7356 49.2432C59.1269 48.9324 59.4092 48.7145 59.5875 48.5897C59.7659 48.4648 60.0135 48.348 60.3276 48.2417C60.6418 48.1328 61.0092 48.0796 61.4352 48.0796C62.3909 48.0796 63.0137 48.4462 63.3013 49.1795C63.5702 49.5088 63.7033 49.9233 63.7033 50.4228C63.7033 51.3314 63.4466 52.233 62.9287 53.1274C62.4113 54.0209 61.6962 55.234 60.7518 55.9173C59.8862 56.5437 59.2971 56.7324 58.0542 57.1789C57.3167 57.4441 56.3689 57.5029 56.1772 57.5029C55.8923 57.5029 55.7487 57.2557 55.7487 56.7669C55.7487 56.6792 55.7913 56.5518 55.8737 56.3843C55.9562 56.2197 56.0575 56.0737 56.1719 55.9487C56.289 55.8239 56.3902 55.7627 56.4808 55.7627C56.6085 55.7627 56.7496 55.8213 56.9041 55.9381C57.0557 56.055 57.1942 56.1135 57.314 56.1135C57.5883 56.1135 57.9689 55.9966 58.4508 55.7654C58.9353 55.5315 59.4092 55.1996 59.8696 54.7664C60.3328 54.3335 60.6843 53.8392 60.924 53.2895ZM60.285 52.5746C60.6737 52.5746 60.9878 52.4261 61.2248 52.1311C61.4617 51.8362 61.579 51.4616 61.579 51.0098C61.579 50.5582 61.4644 50.1917 61.2329 49.9154C61.0012 49.6363 60.695 49.4984 60.3144 49.4984C59.9204 49.4984 59.5849 49.6311 59.3079 49.8994C59.0338 50.1678 58.8953 50.5078 58.8953 50.917C58.8953 51.3686 59.0338 51.7591 59.3079 52.0859C59.5822 52.4126 59.907 52.5746 60.285 52.5746ZM67.2813 51.0471C67.7977 50.8001 68.378 50.6778 69.0197 50.6778C69.4351 50.6778 69.8077 50.7497 70.1379 50.893C70.4652 51.0365 70.7209 51.2383 70.9018 51.4935C71.0856 51.7512 71.1761 52.038 71.1761 52.3542C71.1761 55.2966 68.4132 55.9172 66.3868 56.5518C65.6575 56.7801 65.1382 56.8944 64.8347 56.8944C64.6164 56.8944 64.4115 56.8095 64.2171 56.6368C64.0227 56.4668 63.9269 56.3127 63.9269 56.1799C63.9269 56.0948 63.9962 55.97 64.1373 55.8C64.2809 55.6326 64.4406 55.4811 64.6218 55.343C64.8027 55.2075 64.9359 55.1412 65.0263 55.1412C65.0637 55.1412 65.1728 55.1491 65.3459 55.1649C65.5216 55.181 65.6974 55.1915 65.8704 55.1915C66.9192 55.1915 67.7153 55.0428 68.2636 54.7454C68.8095 54.4504 69.0836 54.0413 69.0836 53.5151C69.0836 53.1591 68.9399 52.8537 68.6523 52.6013C68.3649 52.3489 67.9921 52.2241 67.5316 52.2241C67.2306 52.2241 66.9778 52.2719 66.7701 52.3649C66.5626 52.4578 66.3629 52.5746 66.1685 52.7156C65.9742 52.8537 65.8383 52.9254 65.7638 52.9254C65.6335 52.9254 65.5669 52.8298 65.5669 52.6359C65.5669 52.4073 65.7824 51.7539 66.2084 50.6778C66.5758 49.764 66.8181 49.2592 66.9298 49.1635C67.1135 49.0095 67.2892 48.8208 67.4596 48.5923C67.6274 48.3665 67.7418 48.2231 67.803 48.1673C67.8616 48.1088 67.9601 48.0796 68.0958 48.0796C68.0666 48.0796 68.2317 48.0876 68.5859 48.1036C68.9425 48.1194 69.3152 48.1274 69.7066 48.1274C70.0767 48.1274 70.5132 48.1248 71.0164 48.1194C71.5168 48.1142 71.8337 48.1115 71.9587 48.1115C72.3874 48.1115 72.6004 48.2177 72.6004 48.4302C72.6004 48.5127 72.5791 48.5871 72.5417 48.6481C72.5019 48.7091 72.4246 48.8022 72.3102 48.9191C72.1957 49.0386 72.1213 49.121 72.0892 49.1609C72.0493 49.2087 71.9694 49.3124 71.8495 49.4744C71.7272 49.6363 71.6233 49.7452 71.5329 49.7985C71.4423 49.8542 71.3198 49.8808 71.1601 49.8808C71.0376 49.8808 70.7343 49.8517 70.247 49.7931C69.7624 49.7348 69.3205 49.7054 68.9265 49.7054C68.5325 49.7054 68.1599 49.748 67.8057 49.8304L67.2813 51.0471Z" fill="#00497A"/>
</svg>
